<svg width="156" height="156" viewBox="0 0 156 156" fill="none" xmlns="http://www.w3.org/2000/svg">
<g filter="url(#filter0_d_31810_1744)">
<path d="M10.5033 63.9665C10.5033 35.5732 33.61 12.4665 62.0033 12.4666C90.3966 12.4666 113.503 35.5732 113.503 63.9665C113.503 77.7276 108.137 90.6571 98.4156 100.379C88.6938 110.101 75.7643 115.467 62.0033 115.467C33.61 115.467 10.5033 92.3599 10.5033 63.9665Z" fill="#DBDBDB"/>
<path d="M10.5033 63.9665C10.5033 35.5732 33.61 12.4665 62.0033 12.4666C90.3966 12.4666 113.503 35.5732 113.503 63.9665C113.503 77.7276 108.137 90.6571 98.4156 100.379C88.6938 110.101 75.7643 115.467 62.0033 115.467C33.61 115.467 10.5033 92.3599 10.5033 63.9665ZM111.543 63.9665C111.543 36.6622 89.3274 14.4466 62.0231 14.4466C34.7188 14.4466 12.5031 36.6622 12.5031 63.9665C12.5031 91.2708 34.7188 113.487 62.0231 113.487C75.2495 113.487 87.684 108.339 97.0494 98.9731C106.395 89.6274 111.563 77.193 111.563 63.9467L111.543 63.9665Z" fill="#DBDBDB"/>
</g>
<path d="M37.1323 34.5193C43.7738 28.8943 52.3666 25.5022 61.7517 25.5022C82.8017 25.5022 99.866 42.5665 99.866 63.6165C99.866 84.6665 82.8017 101.731 61.7517 101.731C40.7017 101.731 23.6373 84.6665 23.6373 63.6165C23.6373 54.5921 26.7737 46.3002 32.0159 39.7714" stroke="#746D68" stroke-width="2.30066" stroke-miterlimit="10" stroke-linecap="round" stroke-linejoin="round"/>
<path d="M61.7514 93.8851C78.4683 93.8851 92.02 80.3334 92.02 63.6165C92.02 46.8996 78.4683 33.3479 61.7514 33.3479C45.0345 33.3479 31.4828 46.8996 31.4828 63.6165C31.4828 80.3334 45.0345 93.8851 61.7514 93.8851Z" stroke="#746D68" stroke-width="2.30066" stroke-miterlimit="10" stroke-linecap="round" stroke-linejoin="round"/>
<path d="M65.2876 77.6935C65.1616 83.3876 63.5982 88.9574 60.7427 93.8853M60.7427 33.3479L59.6345 37.0391C58.4509 40.9814 57.9974 45.1069 58.2965 49.2122M55.295 76.5097C51.1304 80.5883 45.9814 83.5199 40.3485 85.0197M83.1548 42.2133L79.7612 44.0399C76.1517 45.9824 72.9257 48.5654 70.2409 51.6627M47.6746 67.1525C41.9805 67.0265 36.4107 65.4631 31.4828 62.6076M92.0202 62.6076L88.329 61.4994C84.2809 60.284 80.0407 59.8388 75.8284 60.1868M49.0909 57.3951C44.8927 53.1911 41.8772 47.9546 40.3484 42.2134M83.1548 85.0197L81.3282 81.6261C79.4145 78.0703 76.879 74.8862 73.842 72.2248" stroke="#746D68" stroke-width="2.30066" stroke-miterlimit="10" stroke-linecap="round" stroke-linejoin="round"/>
<path d="M61.7519 77.6938C69.5265 77.6938 75.829 71.3913 75.829 63.6167C75.829 55.8421 69.5265 49.5396 61.7519 49.5396C53.9773 49.5396 47.6747 55.8421 47.6747 63.6167C47.6747 71.3913 53.9773 77.6938 61.7519 77.6938Z" stroke="#746D68" stroke-width="2.30066" stroke-miterlimit="10" stroke-linecap="round" stroke-linejoin="round"/>
<path d="M67.7993 67.1534C66.5834 69.228 64.3303 70.621 61.752 70.621C57.8835 70.621 54.7476 67.485 54.7476 63.6165C54.7476 59.748 57.8835 56.6121 61.752 56.6121C64.8233 56.6121 67.433 58.5888 68.3781 61.3393M60.2235 62.0879L63.2806 65.1451M63.2806 62.0879L60.2235 65.1451" stroke="#746D68" stroke-width="2.30066" stroke-miterlimit="10" stroke-linecap="round" stroke-linejoin="round"/>
<defs>
<filter id="filter0_d_31810_1744" x="-1.90735e-06" y="2.19345e-05" width="155.418" height="155.418" filterUnits="userSpaceOnUse" color-interpolation-filters="sRGB">
<feFlood flood-opacity="0" result="BackgroundImageFix"/>
<feColorMatrix in="SourceAlpha" type="matrix" values="0 0 0 0 0 0 0 0 0 0 0 0 0 0 0 0 0 0 127 0" result="hardAlpha"/>
<feOffset dx="15.7059" dy="13.7426"/>
<feGaussianBlur stdDeviation="13.1046"/>
<feComposite in2="hardAlpha" operator="out"/>
<feColorMatrix type="matrix" values="0 0 0 0 0.350962 0 0 0 0 0.320449 0 0 0 0 0.298655 0 0 0 1 0"/>
<feBlend mode="normal" in2="BackgroundImageFix" result="effect1_dropShadow_31810_1744"/>
<feBlend mode="normal" in="SourceGraphic" in2="effect1_dropShadow_31810_1744" result="shape"/>
</filter>
</defs>
</svg>
