<svg width="136" height="136" viewBox="0 0 136 136" fill="none" xmlns="http://www.w3.org/2000/svg">
<g filter="url(#filter0_d_31810_1754)">
<path d="M14.7 53.6999C14.7 33.3009 31.3009 16.6999 51.7 16.6999C72.0991 16.7 88.7 33.3009 88.7 53.6999C88.7 63.5865 84.8449 72.8756 77.8603 79.8603C70.8757 86.8449 61.5866 90.6999 51.7 90.6999C31.3009 90.6999 14.7 74.099 14.7 53.6999Z" fill="#746D68"/>
<path d="M14.7 53.6999C14.7 33.3009 31.3009 16.6999 51.7 16.6999C72.0991 16.7 88.7 33.3009 88.7 53.6999C88.7 63.5865 84.8449 72.8756 77.8603 79.8603C70.8757 86.8449 61.5866 90.6999 51.7 90.6999C31.3009 90.6999 14.7 74.099 14.7 53.6999ZM87.2917 53.6999C87.2917 34.0833 71.3309 18.1225 51.7142 18.1225C32.0975 18.1225 16.1367 34.0833 16.1367 53.6999C16.1367 73.3166 32.0975 89.2774 51.7142 89.2774C61.2167 89.2774 70.1502 85.5788 76.8788 78.8503C83.5931 72.1359 87.3059 63.2024 87.3059 53.6857L87.2917 53.6999Z" fill="#746D68"/>
<path d="M34.495 33.1785C39.2666 29.1372 45.4401 26.7002 52.1827 26.7002C67.306 26.7002 79.5658 38.96 79.5658 54.0833C79.5658 69.2066 67.306 81.4664 52.1827 81.4664C37.0594 81.4664 24.7996 69.2066 24.7996 54.0833C24.7996 47.5997 27.053 41.6424 30.8192 36.9518" stroke="#ADACAC" stroke-width="1.6529" stroke-miterlimit="10" stroke-linecap="round" stroke-linejoin="round"/>
<path d="M52.1828 75.8297C64.193 75.8297 73.9292 66.0935 73.9292 54.0833C73.9292 42.0731 64.193 32.3369 52.1828 32.3369C40.1726 32.3369 30.4364 42.0731 30.4364 54.0833C30.4364 66.0935 40.1726 75.8297 52.1828 75.8297Z" stroke="#ADACAC" stroke-width="1.6529" stroke-miterlimit="10" stroke-linecap="round" stroke-linejoin="round"/>
<path d="M54.7233 64.1969C54.6328 68.2877 53.5096 72.2893 51.4581 75.8298M51.4581 32.3369L50.6619 34.9888C49.8116 37.8212 49.4858 40.7851 49.7006 43.7346M47.5442 63.3464C44.5521 66.2766 40.8529 68.3828 36.806 69.4604M67.56 38.7062L65.1219 40.0185C62.5286 41.4141 60.2109 43.2699 58.282 45.4951M42.0694 56.6237C37.9785 56.5332 33.9769 55.41 30.4364 53.3584M73.9293 53.3584L71.2774 52.5623C68.369 51.6891 65.3227 51.3692 62.2964 51.6193M43.0869 49.6135C40.0707 46.5932 37.9042 42.831 36.8058 38.7063M67.56 69.4604L66.2477 67.0222C64.8728 64.4676 63.0512 62.18 60.8693 60.2679" stroke="#ADACAC" stroke-width="1.6529" stroke-miterlimit="10" stroke-linecap="round" stroke-linejoin="round"/>
<path d="M52.1828 64.1968C57.7684 64.1968 62.2965 59.6688 62.2965 54.0832C62.2965 48.4975 57.7684 43.9695 52.1828 43.9695C46.5971 43.9695 42.0691 48.4975 42.0691 54.0832C42.0691 59.6688 46.5971 64.1968 52.1828 64.1968Z" stroke="#ADACAC" stroke-width="1.6529" stroke-miterlimit="10" stroke-linecap="round" stroke-linejoin="round"/>
<path d="M56.5273 56.6242C55.6538 58.1146 54.0351 59.1154 52.1827 59.1154C49.4034 59.1154 47.1504 56.8624 47.1504 54.0831C47.1504 51.3038 49.4034 49.0508 52.1827 49.0508C54.3892 49.0508 56.2642 50.471 56.9432 52.4471M51.0845 52.9849L53.2809 55.1813M53.2809 52.9849L51.0845 55.1813" stroke="#ADACAC" stroke-width="1.6529" stroke-miterlimit="10" stroke-linecap="round" stroke-linejoin="round"/>
</g>
<defs>
<filter id="filter0_d_31810_1754" x="0" y="-4.95911e-05" width="135.4" height="135.4" filterUnits="userSpaceOnUse" color-interpolation-filters="sRGB">
<feFlood flood-opacity="0" result="BackgroundImageFix"/>
<feColorMatrix in="SourceAlpha" type="matrix" values="0 0 0 0 0 0 0 0 0 0 0 0 0 0 0 0 0 0 127 0" result="hardAlpha"/>
<feOffset dx="16" dy="14"/>
<feGaussianBlur stdDeviation="15.35"/>
<feComposite in2="hardAlpha" operator="out"/>
<feColorMatrix type="matrix" values="0 0 0 0 0.384314 0 0 0 0 0.356863 0 0 0 0 0.337255 0 0 0 1 0"/>
<feBlend mode="normal" in2="BackgroundImageFix" result="effect1_dropShadow_31810_1754"/>
<feBlend mode="normal" in="SourceGraphic" in2="effect1_dropShadow_31810_1754" result="shape"/>
</filter>
</defs>
</svg>
