<svg width="157" height="157" viewBox="0 0 157 157" fill="none" xmlns="http://www.w3.org/2000/svg">
<g filter="url(#filter0_d_31810_1730)">
<path d="M62.1278 115.614C90.5704 115.614 113.628 92.5569 113.628 64.1143C113.628 35.6716 90.5704 12.6143 62.1278 12.6143C33.6851 12.6143 10.6278 35.6716 10.6278 64.1143C10.6278 92.5569 33.6851 115.614 62.1278 115.614Z" fill="#DBDBDB"/>
<path d="M70.6812 67.6881C70.9547 67.4166 71.3973 67.418 71.6693 67.6908C71.9412 67.9644 71.9397 68.4068 71.6666 68.6789L69.3682 70.965L69.2577 71.0537C68.9862 71.2318 68.6182 71.2012 68.3801 70.9623C68.1084 70.6885 68.1092 70.2447 68.3829 69.9728L70.6812 67.6881Z" fill="#726965"/>
<path fill-rule="evenodd" clip-rule="evenodd" d="M26.1859 39.4476C29.1792 39.9401 31.3822 41.6731 33.1737 43.3468C33.6231 43.7667 34.056 44.1906 34.4662 44.5929C34.88 44.9988 35.2713 45.3822 35.6563 45.7366C36.3387 46.3649 36.955 46.8609 37.5533 47.1929L40.0209 46.9513C40.0749 46.9427 40.1301 46.9377 40.186 46.9376H97.3467L97.4627 46.9445C97.7292 46.9741 97.9765 47.1052 98.1506 47.313C98.8572 48.1573 99.3499 49.4322 99.7037 50.7318C100.067 52.0654 100.319 53.5658 100.476 54.9695C100.633 56.3729 100.698 57.7134 100.677 58.735C100.666 59.2397 100.633 59.7009 100.57 60.0643C100.54 60.2408 100.494 60.4423 100.418 60.628C100.379 60.7213 100.319 60.8466 100.224 60.9705C100.154 61.0613 100.041 61.1846 99.8729 61.2817L99.686 61.3677C99.5803 61.4057 99.4693 61.4277 99.357 61.4305L76.4529 61.9873L76.4543 61.9887C76.0095 62.0012 75.6713 62.3539 75.6709 62.7857V62.7912L75.6641 64.0577H76.6918C77.0775 64.0577 77.3902 64.3709 77.3906 64.7565C77.3906 65.1424 77.0777 65.4553 76.6918 65.4553H75.6573L75.6204 73.1978H76.0612L76.2018 73.2115C76.5202 73.2764 76.7597 73.559 76.76 73.8966C76.76 74.2343 76.5203 74.5167 76.2018 74.5817L76.0612 74.5954H75.6136L75.503 97.2265C75.5014 97.5593 75.3418 97.8723 75.0731 98.0686C74.7667 98.2924 74.3862 98.4315 74.0454 98.5272C73.6847 98.6284 73.2724 98.7069 72.8403 98.766C71.9747 98.8845 70.9533 98.9379 69.9469 98.9352C68.9399 98.9325 67.9171 98.8731 67.0494 98.7537C66.6165 98.6941 66.2043 98.6166 65.8443 98.519C65.5029 98.4264 65.129 98.2945 64.8262 98.0904C64.538 97.8957 64.3651 97.5703 64.3649 97.2224V62.7161C64.3646 62.2842 64.0117 61.9178 63.5665 61.9054L40.3239 61.4332C40.2815 61.4382 40.2391 61.4458 40.1956 61.4455L40.0891 61.44L37.5984 61.1698C37.2053 61.4449 36.679 61.9181 35.9975 62.5742C35.2032 63.3388 34.2428 64.305 33.2269 65.2178C32.2061 66.135 31.0754 67.0485 29.8859 67.7359C28.7743 68.3781 27.55 68.8589 26.2719 68.9164L26.0153 68.9219L25.8406 68.9082L24.8484 68.7404L24.8443 68.739C24.0263 68.5967 23.4306 67.8992 23.4304 67.063V41.1536C23.4304 40.3533 24.0161 39.6403 24.8566 39.5527L25.9047 39.4394L26.0453 39.434C26.0923 39.4353 26.1394 39.44 26.1859 39.4476ZM40.9913 49.034C40.5929 50.7388 40.4408 52.9169 40.4795 54.9559C40.5015 56.1184 40.5854 57.2078 40.7101 58.1017C40.7811 58.6107 40.864 59.0276 40.9449 59.3478L63.617 59.8091H63.6252L63.9145 59.8323C65.345 60.0147 66.4609 61.2347 66.4612 62.7161V72.0664C66.6766 72.0307 66.9056 72.0951 67.0713 72.2616C67.3274 72.5192 67.3384 72.924 67.1109 73.1978H67.5531C67.9388 73.1978 68.2515 73.5109 68.2518 73.8966C68.2518 74.2825 67.939 74.5954 67.5531 74.5954H66.4612V96.5114C66.6976 96.5715 66.9921 96.6292 67.3361 96.6765C68.0898 96.7802 69.0154 96.8364 69.9524 96.8389C70.8899 96.8414 71.8112 96.7908 72.5564 96.6888C72.8948 96.6424 73.1811 96.5834 73.4094 96.5236L73.5172 74.5954H71.8071C71.4214 74.5952 71.1084 74.2824 71.1084 73.8966C71.1087 73.511 71.4215 73.198 71.8071 73.1978H73.5241L73.5555 66.5894C73.3496 66.6137 73.1356 66.5498 72.9781 66.3915C72.7064 66.1178 72.7073 65.6754 72.9809 65.4034L73.5636 64.822L73.5746 62.7803C73.5779 61.2034 74.8309 59.9376 76.3956 59.8937H76.3997L98.545 59.3519C98.5605 59.1699 98.5751 58.9482 98.5805 58.69C98.5996 57.7788 98.5409 56.5328 98.3921 55.2015C98.2433 53.8701 98.0076 52.483 97.6811 51.2832C97.4183 50.3179 97.1156 49.5527 96.8035 49.034H40.9913ZM25.5267 41.5876V66.7273L26.0822 66.8214C26.929 66.8055 27.8509 66.4914 28.8363 65.922C29.8436 65.34 30.851 64.5344 31.8266 63.6578C32.8071 62.7768 33.7038 61.8721 34.5439 61.0633C35.3369 60.3001 36.1452 59.5542 36.8464 59.1704L36.9924 59.1049C37.1419 59.0506 37.3024 59.0304 37.4619 59.0475L38.7639 59.1867C38.7156 58.9309 38.6709 58.6637 38.6329 58.3911C38.4948 57.401 38.4079 56.2269 38.3845 54.9954C38.3486 53.1 38.4652 50.9976 38.8185 49.1746L37.4523 49.3097C37.2615 49.3284 37.0684 49.2945 36.8955 49.2114C35.9313 48.7478 35.0551 48.0322 34.2369 47.2788C33.8238 46.8985 33.4085 46.4931 32.9976 46.0901C32.5831 45.6836 32.1706 45.2773 31.7434 44.8782C30.0582 43.3037 28.2704 41.9556 25.973 41.5398L25.5267 41.5876Z" fill="#726965"/>
<path d="M92.5399 85.4128L89.742 84.7986C87.9887 88.341 84.5602 90.6112 79.794 90.6113C79.408 90.6113 79.0952 90.2985 79.0952 89.9125C79.0955 89.5269 79.4082 89.2138 79.794 89.2138C83.892 89.2137 86.773 87.3704 88.3294 84.4888L85.593 83.8897L90.3876 78.6488L92.5399 85.4128Z" fill="#726965"/>
<path d="M84.5694 73.1978C84.9549 73.1981 85.2679 73.5111 85.2682 73.8966C85.2682 74.2823 84.9551 74.5951 84.5694 74.5954H80.3153C79.9294 74.5954 79.6166 74.2825 79.6165 73.8966C79.6169 73.5109 79.9296 73.1978 80.3153 73.1978H84.5694Z" fill="#726965"/>
<path d="M93.0762 73.1978C93.462 73.1978 93.7747 73.5109 93.775 73.8966C93.775 74.2825 93.4621 74.5954 93.0762 74.5954H88.8221C88.4365 74.5951 88.1234 74.2823 88.1234 73.8966C88.1237 73.5111 88.4367 73.1981 88.8221 73.1978H93.0762Z" fill="#726965"/>
<path d="M100.325 71.0114C100.707 71.0629 100.975 71.4153 100.924 71.7975L100.856 72.252C100.781 72.6951 100.688 73.1019 100.574 73.4366C100.5 73.6577 100.406 73.8779 100.285 74.0631C100.188 74.2114 100.023 74.4161 99.7651 74.5271L99.6491 74.5681C99.5867 74.5859 99.5216 74.5954 99.4567 74.5954H97.3303C96.9444 74.5954 96.6316 74.2825 96.6315 73.8966C96.6319 73.5109 96.9446 73.1978 97.3303 73.1978H99.1687C99.1928 73.1456 99.2209 73.0767 99.2506 72.989C99.3606 72.6632 99.4621 72.1886 99.5399 71.6105L99.5727 71.4727C99.68 71.1664 99.9905 70.9666 100.325 71.0114Z" fill="#726965"/>
<path d="M99.615 64.0755C99.6666 64.0874 99.7173 64.1053 99.7651 64.1287C100.238 64.3603 100.487 64.8627 100.633 65.2669C100.754 65.6021 100.845 65.9948 100.914 66.4147L100.976 66.8419L100.98 66.9839C100.955 67.3078 100.705 67.5806 100.37 67.6226C100.035 67.6643 99.7244 67.4611 99.6205 67.1531L99.5891 67.0153L99.5345 66.6358C99.4753 66.2758 99.4026 65.9728 99.3188 65.7405C99.2676 65.5986 99.2194 65.5099 99.1864 65.4553H97.3876C97.0017 65.4553 96.6889 65.1424 96.6889 64.7565C96.6892 64.3709 97.0019 64.0577 97.3876 64.0577H99.4567L99.615 64.0755Z" fill="#726965"/>
<path d="M84.9707 64.0577C85.3563 64.0579 85.6691 64.3709 85.6694 64.7565C85.6694 65.1423 85.3565 65.4551 84.9707 65.4553H80.8312C80.4453 65.4553 80.1324 65.1424 80.1324 64.7565C80.1328 64.3709 80.4455 64.0578 80.8312 64.0577H84.9707Z" fill="#726965"/>
<path d="M93.2482 64.0577C93.6339 64.0577 93.9466 64.3709 93.947 64.7565C93.947 65.1424 93.6341 65.4553 93.2482 65.4553H89.1101C88.7242 65.4553 88.4113 65.1424 88.4113 64.7565C88.4117 64.3709 88.7244 64.0577 89.1101 64.0577H93.2482Z" fill="#726965"/>
</g>
<defs>
<filter id="filter0_d_31810_1730" x="4.76837e-06" y="-1.43051e-05" width="156.04" height="156.04" filterUnits="userSpaceOnUse" color-interpolation-filters="sRGB">
<feFlood flood-opacity="0" result="BackgroundImageFix"/>
<feColorMatrix in="SourceAlpha" type="matrix" values="0 0 0 0 0 0 0 0 0 0 0 0 0 0 0 0 0 0 127 0" result="hardAlpha"/>
<feOffset dx="15.892" dy="13.9055"/>
<feGaussianBlur stdDeviation="13.2599"/>
<feComposite in2="hardAlpha" operator="out"/>
<feColorMatrix type="matrix" values="0 0 0 0 0.350962 0 0 0 0 0.320449 0 0 0 0 0.298655 0 0 0 1 0"/>
<feBlend mode="normal" in2="BackgroundImageFix" result="effect1_dropShadow_31810_1730"/>
<feBlend mode="normal" in="SourceGraphic" in2="effect1_dropShadow_31810_1730" result="shape"/>
</filter>
</defs>
</svg>
