<svg width="136" height="136" viewBox="0 0 136 136" fill="none" xmlns="http://www.w3.org/2000/svg">
<g filter="url(#filter0_d_31810_1733)">
<path d="M51.7 90.7C72.1345 90.7 88.7 74.1345 88.7 53.7C88.7 33.2654 72.1345 16.7 51.7 16.7C31.2655 16.7 14.7 33.2654 14.7 53.7C14.7 74.1345 31.2655 90.7 51.7 90.7Z" fill="#746D68"/>
<path d="M57.8445 56.2676C58.0409 56.0725 58.3589 56.0736 58.5544 56.2696C58.7497 56.4661 58.7487 56.784 58.5524 56.9795L56.9012 58.6219L56.8218 58.6856C56.6267 58.8135 56.3623 58.7916 56.1913 58.6199C55.996 58.4232 55.9967 58.1044 56.1932 57.909L57.8445 56.2676Z" fill="#ADACAC"/>
<path fill-rule="evenodd" clip-rule="evenodd" d="M25.877 35.9783C28.0275 36.3321 29.6102 37.5772 30.8973 38.7797C31.2202 39.0814 31.5312 39.3859 31.8259 39.6749C32.1232 39.9666 32.4043 40.242 32.6809 40.4966C33.1712 40.948 33.614 41.3044 34.0439 41.5429L35.8167 41.3693C35.8555 41.3631 35.8951 41.3595 35.9353 41.3595H77.0022L77.0856 41.3644C77.277 41.3857 77.4547 41.4799 77.5797 41.6291C78.0874 42.2358 78.4414 43.1517 78.6956 44.0854C78.9563 45.0435 79.1379 46.1215 79.2506 47.13C79.3632 48.1382 79.4101 49.1013 79.3947 49.8353C79.3871 50.1979 79.3633 50.5292 79.3182 50.7903C79.2963 50.9171 79.2631 51.0619 79.2084 51.1953C79.1809 51.2623 79.1376 51.3523 79.0692 51.4414C79.019 51.5066 78.9376 51.5952 78.8172 51.665L78.6828 51.7267C78.6069 51.754 78.5272 51.7698 78.4465 51.7718L61.9912 52.1719L61.9921 52.1729C61.6726 52.1819 61.4296 52.4352 61.4293 52.7455V52.7494L61.4244 53.6594H62.1628C62.4399 53.6594 62.6646 53.8843 62.6648 54.1614C62.6648 54.4387 62.44 54.6634 62.1628 54.6634H61.4195L61.393 60.226H61.7097L61.8107 60.2358C62.0395 60.2825 62.2116 60.4856 62.2118 60.7281C62.2118 60.9707 62.0396 61.1735 61.8107 61.2203L61.7097 61.2301H61.3881L61.3087 77.4894C61.3075 77.7285 61.1929 77.9533 60.9998 78.0944C60.7797 78.2551 60.5063 78.3551 60.2615 78.4238C60.0023 78.4966 59.7061 78.5529 59.3957 78.5954C58.7738 78.6805 58.04 78.7189 57.3169 78.717C56.5935 78.715 55.8586 78.6724 55.2353 78.5866C54.9242 78.5438 54.6281 78.4881 54.3694 78.4179C54.1242 78.3514 53.8555 78.2567 53.638 78.1101C53.4309 77.9701 53.3067 77.7364 53.3065 77.4864V52.6955C53.3063 52.3852 53.0528 52.1219 52.7329 52.1131L36.0344 51.7738C36.0039 51.7774 35.9734 51.7828 35.9422 51.7826L35.8657 51.7787L34.0762 51.5845C33.7938 51.7822 33.4157 52.1222 32.9261 52.5935C32.3554 53.1428 31.6655 53.837 30.9356 54.4928C30.2022 55.1518 29.3898 55.8081 28.5352 56.3019C27.7366 56.7633 26.857 57.1088 25.9387 57.1501L25.7544 57.154L25.6289 57.1442L24.916 57.0236L24.9131 57.0226C24.3254 56.9204 23.8975 56.4192 23.8973 55.8185V37.204C23.8973 36.629 24.3181 36.1168 24.9219 36.0538L25.675 35.9724L25.776 35.9685C25.8097 35.9695 25.8436 35.9728 25.877 35.9783ZM36.5138 42.8656C36.2276 44.0904 36.1184 45.6553 36.1461 47.1202C36.162 47.9554 36.2223 48.7381 36.3119 49.3803C36.3629 49.746 36.4224 50.0455 36.4805 50.2755L52.7692 50.607H52.7751L52.983 50.6236C54.0107 50.7547 54.8124 51.6312 54.8126 52.6955V59.4132C54.9674 59.3875 55.1319 59.4338 55.2509 59.5534C55.4349 59.7385 55.4428 60.0293 55.2794 60.226H55.5971C55.8742 60.226 56.0989 60.451 56.0991 60.7281C56.0991 61.0053 55.8743 61.2301 55.5971 61.2301H54.8126V76.9756C54.9824 77.0188 55.1941 77.0602 55.4412 77.0942C55.9827 77.1687 56.6476 77.2091 57.3209 77.2109C57.9944 77.2127 58.6563 77.1763 59.1917 77.103C59.4349 77.0697 59.6405 77.0273 59.8046 76.9844L59.882 61.2301H58.6534C58.3762 61.23 58.1514 61.0052 58.1514 60.7281C58.1516 60.4511 58.3764 60.2261 58.6534 60.226H59.8869L59.9095 55.4783C59.7616 55.4957 59.6078 55.4498 59.4947 55.3361C59.2995 55.1394 59.3001 54.8216 59.4967 54.6262L59.9154 54.2085L59.9232 52.7416C59.9256 51.6087 60.8258 50.6993 61.95 50.6677H61.9529L77.8631 50.2785C77.8743 50.1477 77.8847 49.9884 77.8886 49.8029C77.9023 49.1483 77.8602 48.2531 77.7533 47.2967C77.6464 46.3401 77.477 45.3435 77.2424 44.4815C77.0537 43.7881 76.8362 43.2382 76.612 42.8656H36.5138ZM25.4034 37.5158V55.5773L25.8025 55.645C26.4109 55.6335 27.0732 55.4078 27.7812 54.9988C28.5048 54.5806 29.2286 54.0018 29.9295 53.3721C30.634 52.7391 31.2782 52.0891 31.8818 51.5081C32.4515 50.9597 33.0322 50.4238 33.536 50.1481L33.6409 50.101C33.7483 50.062 33.8636 50.0475 33.9782 50.0598L34.9136 50.1598C34.8789 49.976 34.8468 49.7841 34.8195 49.5882C34.7203 48.8769 34.6578 48.0333 34.641 47.1486C34.6152 45.7869 34.699 44.2764 34.9528 42.9666L33.9713 43.0637C33.8342 43.0771 33.6955 43.0527 33.5713 42.9931C32.8786 42.66 32.2491 42.1459 31.6612 41.6046C31.3644 41.3314 31.066 41.0401 30.7708 40.7506C30.4731 40.4585 30.1766 40.1666 29.8697 39.8799C28.659 38.7487 27.3746 37.7802 25.724 37.4815L25.4034 37.5158Z" fill="#ADACAC"/>
<path d="M73.5488 69.0018L71.5387 68.5606C70.279 71.1056 67.8158 72.7366 64.3915 72.7367C64.1142 72.7367 63.8895 72.5119 63.8895 72.2347C63.8897 71.9576 64.1144 71.7326 64.3915 71.7326C67.3357 71.7326 69.4056 70.4083 70.5238 68.338L68.5578 67.9076L72.0024 64.1423L73.5488 69.0018Z" fill="#ADACAC"/>
<path d="M67.8224 60.226C68.0994 60.2262 68.3242 60.4511 68.3245 60.7281C68.3244 61.0052 68.0995 61.2299 67.8224 61.2301H64.7661C64.4888 61.2301 64.2641 61.0053 64.264 60.7281C64.2643 60.451 64.489 60.226 64.7661 60.226H67.8224Z" fill="#ADACAC"/>
<path d="M73.9341 60.226C74.2112 60.226 74.4359 60.451 74.4361 60.7281C74.4361 61.0053 74.2114 61.2301 73.9341 61.2301H70.8778C70.6007 61.2299 70.3758 61.0052 70.3757 60.7281C70.376 60.4511 70.6008 60.2262 70.8778 60.226H73.9341Z" fill="#ADACAC"/>
<path d="M79.1417 58.6552C79.4164 58.6922 79.6089 58.9454 79.5722 59.22L79.5232 59.5465C79.4696 59.8649 79.4024 60.1571 79.3212 60.3976C79.2675 60.5564 79.2001 60.7146 79.1133 60.8477C79.0437 60.9543 78.9251 61.1013 78.7397 61.1811L78.6564 61.2105C78.6115 61.2233 78.5648 61.2301 78.5181 61.2301H76.9904C76.7132 61.2301 76.4884 61.0053 76.4884 60.7281C76.4886 60.451 76.7133 60.226 76.9904 60.226H78.3112C78.3285 60.1885 78.3488 60.139 78.3701 60.076C78.4491 59.8419 78.522 59.501 78.5779 59.0857L78.6015 58.9866C78.6786 58.7666 78.9016 58.623 79.1417 58.6552Z" fill="#ADACAC"/>
<path d="M78.6319 53.6721C78.6689 53.6807 78.7053 53.6935 78.7397 53.7104C79.0791 53.8768 79.2586 54.2377 79.3633 54.5281C79.4502 54.7689 79.5159 55.051 79.5653 55.3528L79.6095 55.6597L79.6124 55.7616C79.5943 55.9943 79.4147 56.1904 79.1741 56.2205C78.9333 56.2505 78.7105 56.1045 78.6358 55.8832L78.6132 55.7842L78.574 55.5116C78.5315 55.2529 78.4793 55.0352 78.4191 54.8684C78.3823 54.7664 78.3477 54.7027 78.324 54.6634H77.0316C76.7544 54.6634 76.5296 54.4387 76.5296 54.1614C76.5298 53.8843 76.7545 53.6594 77.0316 53.6594H78.5181L78.6319 53.6721Z" fill="#ADACAC"/>
<path d="M68.1107 53.6594C68.3877 53.6595 68.6125 53.8844 68.6127 54.1614C68.6127 54.4386 68.3879 54.6633 68.1107 54.6634H65.1367C64.8595 54.6634 64.6347 54.4387 64.6347 54.1614C64.6349 53.8843 64.8596 53.6594 65.1367 53.6594H68.1107Z" fill="#ADACAC"/>
<path d="M74.0577 53.6594C74.3348 53.6594 74.5595 53.8843 74.5597 54.1614C74.5597 54.4387 74.3349 54.6634 74.0577 54.6634H71.0847C70.8074 54.6634 70.5826 54.4387 70.5826 54.1614C70.5829 53.8843 70.8075 53.6594 71.0847 53.6594H74.0577Z" fill="#ADACAC"/>
</g>
<defs>
<filter id="filter0_d_31810_1733" x="0" y="-4.95911e-05" width="135.4" height="135.4" filterUnits="userSpaceOnUse" color-interpolation-filters="sRGB">
<feFlood flood-opacity="0" result="BackgroundImageFix"/>
<feColorMatrix in="SourceAlpha" type="matrix" values="0 0 0 0 0 0 0 0 0 0 0 0 0 0 0 0 0 0 127 0" result="hardAlpha"/>
<feOffset dx="16" dy="14"/>
<feGaussianBlur stdDeviation="15.35"/>
<feComposite in2="hardAlpha" operator="out"/>
<feColorMatrix type="matrix" values="0 0 0 0 0.384314 0 0 0 0 0.356863 0 0 0 0 0.337255 0 0 0 1 0"/>
<feBlend mode="normal" in2="BackgroundImageFix" result="effect1_dropShadow_31810_1733"/>
<feBlend mode="normal" in="SourceGraphic" in2="effect1_dropShadow_31810_1733" result="shape"/>
</filter>
</defs>
</svg>
