<svg width="157" height="157" viewBox="0 0 157 157" fill="none" xmlns="http://www.w3.org/2000/svg">
<g filter="url(#filter0_d_31810_1723)">
<path d="M62.1278 115.614C90.5704 115.614 113.628 92.5569 113.628 64.1142C113.628 35.6716 90.5704 12.6143 62.1278 12.6143C33.6851 12.6143 10.6278 35.6716 10.6278 64.1142C10.6278 92.5569 33.6851 115.614 62.1278 115.614Z" fill="#DBDBDB"/>
</g>
<path fill-rule="evenodd" clip-rule="evenodd" d="M92.5657 54.5998C90.6348 61.9187 87.0553 68.1657 81.7956 73.3963C80.4743 74.7102 76.7025 77.7094 75.3525 78.5194C74.6525 78.9395 74.6195 78.9436 69.8709 79.1901C67.2433 79.3266 65.088 79.4798 65.0811 79.5307C65.062 79.6729 66.2422 80.1924 67.0797 80.4104C68.2302 80.7099 68.5472 80.9943 68.4643 81.6525C68.2767 83.1408 63.3135 86.0033 59.4615 86.8449C57.1732 87.3447 55.5745 87.4093 52.7991 87.114C49.9981 86.8158 49.6921 86.7138 49.4578 85.9988C49.3005 85.519 49.6101 84.8408 50.0642 84.6705C50.2563 84.5984 51.0265 84.6502 52.0707 84.8054C56.4886 85.4622 60.7962 84.6549 64.2463 82.5234L64.9194 82.1074L64.2343 81.6911C63.2509 81.0935 61.9829 79.8673 61.6555 79.1973C61.3016 78.4725 61.4202 77.8252 61.9619 77.5269C62.2329 77.3777 64.0532 77.2308 68.3038 77.0152L74.2656 76.7129L76.1921 75.2239C77.2518 74.4051 78.0987 73.7091 78.0743 73.6773C78.0498 73.6456 77.5552 73.6594 76.9749 73.708C75.5703 73.8257 72.747 73.5705 72.0005 73.2584C71.6844 73.1262 71.3202 72.8809 71.1913 72.7133C70.8931 72.3253 70.9743 71.6935 71.3707 71.3187C71.6695 71.0361 71.743 71.0356 73.8055 71.299C76.4779 71.6404 77.891 71.5186 80.088 70.7572L81.6082 70.2303L82.6482 69.0318C83.667 67.8578 86.2237 64.3013 86.0642 64.2802C86.0198 64.2744 85.603 64.4004 85.1381 64.5604C84.0054 64.9502 83.3402 65.061 82.6336 64.9776C82.161 64.9217 81.9908 64.8262 81.7741 64.4958C81.2033 63.625 81.7643 62.8982 83.16 62.7003C84.8197 62.465 86.9088 61.5205 87.9049 60.5551C88.178 60.2903 88.5166 59.6614 88.8789 58.7461C91.3987 52.3773 92.0274 45.5324 90.6971 38.9476C90.5366 38.153 90.3758 37.3909 90.3396 37.2541C90.2791 37.0246 90.2047 37.0215 89.3778 37.2149C87.0758 37.7532 83.922 38.9983 81.7675 40.2194C80.474 40.9525 79.9578 41.0277 79.4439 40.5573C79.1031 40.2454 79.0351 39.6428 79.2921 39.2116C79.6684 38.5806 83.3982 36.7273 86.1392 35.8095C88.2914 35.0888 90.7158 34.5204 91.305 34.5983C91.8259 34.6672 92.1454 35.1537 92.4701 36.3733C93.1627 38.9741 93.607 42.1467 93.6836 45.0375C93.7368 47.0455 93.0827 52.6398 92.5657 54.5998ZM81.3044 55.1478C80.2829 56.5037 75.3459 61.6515 72.6902 64.1299C61.3023 74.7572 48.1303 82.996 33.5503 88.6107C32.1108 89.1651 30.7774 89.598 30.587 89.5729C29.991 89.4941 29.576 88.9357 29.6571 88.3219C29.7436 87.6672 30.007 87.5029 32.3461 86.6451C34.5817 85.8253 37.4493 84.6261 39.9576 83.4621C41.1142 82.9253 42.0813 82.4707 42.1067 82.4515C42.1322 82.4325 42.0484 81.7609 41.9206 80.9591C41.2663 76.8554 41.9494 72.2541 43.7656 68.529C44.3223 67.3872 44.6595 67.1049 45.3568 67.1971C45.8413 67.2611 46.1141 67.5901 46.5354 68.6185C46.8095 69.2876 47.4275 70.1661 47.4542 69.9245C47.4621 69.8541 47.444 69.287 47.4142 68.6643C47.2782 65.8206 48.0846 63.1908 49.7053 61.1925C51.3551 59.1583 61.7348 49.9909 62.6254 49.7814C63.1156 49.6662 63.8617 50.1176 63.892 50.5479C63.9048 50.7287 63.8791 51.4183 63.8351 52.0803C63.7533 53.3099 63.9364 54.8233 64.2865 55.8123C64.3942 56.1165 64.4982 56.3676 64.5177 56.3702C64.5371 56.3728 64.6155 55.7148 64.6918 54.908C65.0304 51.3266 66.3219 48.2557 68.366 46.1704C69.8232 44.6841 73.0996 42.4987 75.1182 41.6666C75.6856 41.4328 76.13 41.6358 76.4354 42.2682C76.6183 42.6469 76.6004 42.7116 75.9008 44.2078C74.7455 46.6782 74.489 47.5801 74.1113 50.4977L73.7762 53.0863L73.3822 53.3193C72.8689 53.6227 72.4248 53.5537 72.0285 53.109C71.7792 52.8291 71.7067 52.5494 71.6985 51.8349C71.6835 50.5508 72.0197 48.2281 72.4173 46.8675C72.6022 46.2345 72.7379 45.6922 72.7188 45.6624C72.6427 45.5437 71.2125 46.5463 70.4652 47.2423C67.7438 49.777 66.6752 53.2981 66.8896 59.0244C66.9336 60.2027 66.9133 60.3519 66.66 60.7147C66.1244 61.4813 65.4036 61.3156 64.3636 60.1865C63.0122 58.7192 61.8388 56.2514 61.6323 54.442C61.5918 54.0886 61.5418 53.713 61.5208 53.6073C61.4777 53.3896 60.9316 53.83 57.9515 56.4868C55.1908 58.948 52.2599 61.708 51.6035 62.4644C50.8945 63.2816 50.129 64.8584 49.8623 66.0515C49.5802 67.3137 49.6369 69.4485 50.0057 71.4519C50.2692 72.8829 50.276 73.0931 50.0693 73.4091C49.9419 73.6039 49.6538 73.823 49.4291 73.8961C49.0824 74.0088 48.9259 73.9829 48.3956 73.7244C47.5099 73.2929 46.5875 72.5596 45.8555 71.705C45.5088 71.3004 45.1889 71.0136 45.1446 71.0678C44.6971 71.6152 43.9542 75.4239 43.9341 77.2745C43.9185 78.696 44.1196 80.9446 44.2823 81.1698C44.4037 81.338 47.6598 79.6044 51.0144 77.5853C61.0538 71.5432 70.5534 63.7589 77.9879 55.4823C79.6916 53.5857 80.1178 53.2289 80.6037 53.2931C81.0326 53.3498 81.6946 54.1296 81.6356 54.5085C81.6141 54.647 81.4651 54.9347 81.3044 55.1478Z" fill="#726965"/>
<defs>
<filter id="filter0_d_31810_1723" x="7.62939e-06" y="-1.14441e-05" width="156.04" height="156.04" filterUnits="userSpaceOnUse" color-interpolation-filters="sRGB">
<feFlood flood-opacity="0" result="BackgroundImageFix"/>
<feColorMatrix in="SourceAlpha" type="matrix" values="0 0 0 0 0 0 0 0 0 0 0 0 0 0 0 0 0 0 127 0" result="hardAlpha"/>
<feOffset dx="15.892" dy="13.9055"/>
<feGaussianBlur stdDeviation="13.2599"/>
<feComposite in2="hardAlpha" operator="out"/>
<feColorMatrix type="matrix" values="0 0 0 0 0.350962 0 0 0 0 0.320449 0 0 0 0 0.298655 0 0 0 1 0"/>
<feBlend mode="normal" in2="BackgroundImageFix" result="effect1_dropShadow_31810_1723"/>
<feBlend mode="normal" in="SourceGraphic" in2="effect1_dropShadow_31810_1723" result="shape"/>
</filter>
</defs>
</svg>
