<svg width="136" height="136" viewBox="0 0 136 136" fill="none" xmlns="http://www.w3.org/2000/svg">
<g filter="url(#filter0_d_32073_84)">
<path d="M51.7 90.7C72.1345 90.7 88.7 74.1345 88.7 53.7C88.7 33.2654 72.1345 16.7 51.7 16.7C31.2655 16.7 14.7 33.2654 14.7 53.7C14.7 74.1345 31.2655 90.7 51.7 90.7Z" fill="#746D68"/>
<path fill-rule="evenodd" clip-rule="evenodd" d="M73.5681 46.8642C72.1809 52.1224 69.6092 56.6106 65.8304 60.3685C64.8811 61.3124 62.1712 63.4672 61.2014 64.0492C60.6984 64.351 60.6748 64.3539 57.2631 64.531C55.3753 64.6291 53.8268 64.7391 53.8219 64.7757C53.8082 64.8779 54.6561 65.2511 55.2577 65.4077C56.0844 65.6229 56.3121 65.8272 56.2526 66.3002C56.1177 67.3694 52.5519 69.4259 49.7845 70.0306C48.1405 70.3897 46.9919 70.4361 44.9979 70.2239C42.9856 70.0097 42.7657 69.9364 42.5974 69.4227C42.4844 69.078 42.7068 68.5908 43.0331 68.4684C43.1711 68.4166 43.7244 68.4538 44.4746 68.5653C47.6486 69.0372 50.7434 68.4572 53.2221 66.9258L53.7057 66.6269L53.2135 66.3279C52.507 65.8985 51.596 65.0175 51.3608 64.5362C51.1065 64.0155 51.1918 63.5504 51.5809 63.3361C51.7756 63.2289 53.0834 63.1234 56.1373 62.9685L60.4205 62.7513L61.8046 61.6815C62.5659 61.0932 63.1743 60.5932 63.1568 60.5704C63.1392 60.5476 62.7839 60.5575 62.367 60.5924C61.3578 60.677 59.3294 60.4936 58.7931 60.2694C58.566 60.1744 58.3043 59.9982 58.2118 59.8778C57.9975 59.599 58.0559 59.1451 58.3406 58.8758C58.5553 58.6728 58.6081 58.6724 60.0899 58.8617C62.0099 59.1069 63.0251 59.0195 64.6035 58.4725L65.6957 58.0939L66.4429 57.2328C67.1749 56.3894 69.0118 53.8342 68.8972 53.8191C68.8652 53.8149 68.5658 53.9054 68.2318 54.0204C67.418 54.3004 66.9401 54.38 66.4324 54.3201C66.0929 54.2799 65.9706 54.2113 65.815 53.974C65.4048 53.3483 65.8079 52.8261 66.8106 52.684C68.0031 52.5149 69.5039 51.8363 70.2196 51.1428C70.4158 50.9525 70.6591 50.5007 70.9193 49.8431C72.7297 45.2674 73.1814 40.3498 72.2256 35.6189C72.1103 35.048 71.9948 34.5005 71.9688 34.4022C71.9253 34.2373 71.8718 34.2351 71.2778 34.374C69.6239 34.7608 67.3581 35.6554 65.8102 36.5326C64.8809 37.0593 64.51 37.1134 64.1408 36.7754C63.8959 36.5513 63.8471 36.1184 64.0318 35.8086C64.3021 35.3552 66.9817 34.0238 68.951 33.3644C70.4973 32.8466 72.2391 32.4382 72.6624 32.4942C73.0366 32.5437 73.2662 32.8932 73.4994 33.7694C73.997 35.6379 74.3162 37.9173 74.3713 39.9942C74.4095 41.4368 73.9396 45.456 73.5681 46.8642ZM65.4774 47.2579C64.7435 48.2321 61.1966 51.9305 59.2886 53.7111C51.107 61.3462 41.6436 67.2654 31.1687 71.2992C30.1345 71.6975 29.1765 72.0086 29.0397 71.9905C28.6115 71.9339 28.3134 71.5327 28.3716 71.0917C28.4338 70.6214 28.623 70.5033 30.3036 69.8871C31.9097 69.2981 33.9699 68.4365 35.772 67.6002C36.603 67.2146 37.2978 66.8879 37.316 66.8742C37.3343 66.8605 37.2741 66.378 37.1823 65.8019C36.7122 62.8537 37.203 59.5479 38.5079 56.8716C38.9078 56.0513 39.1501 55.8485 39.6511 55.9147C39.9991 55.9607 40.1951 56.197 40.4978 56.9359C40.6947 57.4166 41.1387 58.0477 41.1579 57.8742C41.1636 57.8236 41.1506 57.4161 41.1292 56.9688C41.0315 54.9258 41.6108 53.0364 42.7752 51.6007C43.9605 50.1392 51.4177 43.553 52.0576 43.4024C52.4098 43.3197 52.9459 43.644 52.9676 43.9531C52.9768 44.083 52.9583 44.5785 52.9267 45.0541C52.8679 45.9375 52.9995 47.0248 53.251 47.7353C53.3284 47.9539 53.4031 48.1343 53.4171 48.1362C53.4311 48.138 53.4874 47.6652 53.5422 47.0856C53.7855 44.5126 54.7133 42.3063 56.1819 40.8081C57.2288 39.7403 59.5828 38.1702 61.033 37.5724C61.4407 37.4044 61.7599 37.5503 61.9794 38.0046C62.1108 38.2767 62.0979 38.3232 61.5952 39.3981C60.7652 41.173 60.5809 41.8209 60.3096 43.9171L60.0689 45.7768L59.7858 45.9442C59.417 46.1622 59.0979 46.1126 58.8133 45.7931C58.6341 45.5921 58.582 45.3911 58.5761 44.8778C58.5654 43.9552 58.8069 42.2865 59.0926 41.309C59.2254 40.8542 59.3229 40.4646 59.3092 40.4432C59.2545 40.3579 58.227 41.0782 57.6901 41.5782C55.7349 43.3993 54.9671 45.929 55.1212 50.043C55.1528 50.8896 55.1383 50.9968 54.9562 51.2574C54.5714 51.8082 54.0536 51.6891 53.3064 50.8779C52.3355 49.8238 51.4925 48.0508 51.3441 46.7508C51.315 46.497 51.2791 46.2271 51.264 46.1512C51.233 45.9947 50.8407 46.3111 48.6996 48.2199C46.7162 49.9882 44.6105 51.971 44.139 52.5145C43.6296 53.1016 43.0796 54.2345 42.888 55.0916C42.6853 55.9985 42.726 57.5322 42.9911 58.9716C43.1804 59.9996 43.1852 60.1507 43.0367 60.3777C42.9452 60.5176 42.7382 60.6751 42.5767 60.7276C42.3277 60.8085 42.2153 60.7899 41.8342 60.6042C41.1979 60.2942 40.5353 59.7673 40.0093 59.1534C39.7602 58.8627 39.5304 58.6567 39.4986 58.6956C39.1771 59.0888 38.6433 61.8252 38.6289 63.1548C38.6177 64.176 38.7622 65.7915 38.8791 65.9533C38.9663 66.0742 41.3056 64.8287 43.7157 63.3781C50.9285 59.0372 57.7534 53.4445 63.0948 47.4982C64.3187 46.1356 64.625 45.8793 64.974 45.9254C65.2822 45.9661 65.7578 46.5264 65.7154 46.7986C65.6999 46.8981 65.5929 47.1048 65.4774 47.2579Z" fill="#ADACAC"/>
</g>
<defs>
<filter id="filter0_d_32073_84" x="0" y="-4.95911e-05" width="135.4" height="135.4" filterUnits="userSpaceOnUse" color-interpolation-filters="sRGB">
<feFlood flood-opacity="0" result="BackgroundImageFix"/>
<feColorMatrix in="SourceAlpha" type="matrix" values="0 0 0 0 0 0 0 0 0 0 0 0 0 0 0 0 0 0 127 0" result="hardAlpha"/>
<feOffset dx="16" dy="14"/>
<feGaussianBlur stdDeviation="15.35"/>
<feComposite in2="hardAlpha" operator="out"/>
<feColorMatrix type="matrix" values="0 0 0 0 0.384314 0 0 0 0 0.356863 0 0 0 0 0.337255 0 0 0 1 0"/>
<feBlend mode="normal" in2="BackgroundImageFix" result="effect1_dropShadow_32073_84"/>
<feBlend mode="normal" in="SourceGraphic" in2="effect1_dropShadow_32073_84" result="shape"/>
</filter>
</defs>
</svg>
